<svg xmlns="http://www.w3.org/2000/svg" width="28" height="51.789" viewBox="0 0 28 51.789">
  <path id="Caminho_1" data-name="Caminho 1" d="M49.023.011,42.307,0C34.762,0,29.886,5,29.886,12.745v5.877H23.133a1.056,1.056,0,0,0-1.056,1.057v8.514a1.056,1.056,0,0,0,1.056,1.056h6.753V50.733a1.056,1.056,0,0,0,1.056,1.056h8.81a1.056,1.056,0,0,0,1.056-1.056V29.249h7.9a1.056,1.056,0,0,0,1.056-1.056l0-8.514a1.057,1.057,0,0,0-1.057-1.057h-7.9V13.64c0-2.394.571-3.61,3.69-3.61l4.524,0a1.056,1.056,0,0,0,1.055-1.056V1.067A1.056,1.056,0,0,0,49.023.011Z" transform="translate(-22.077)" fill="#fff"/>
</svg>
