<svg xmlns="http://www.w3.org/2000/svg" width="22.085" height="39" viewBox="0 0 22.085 39">
  <g id="contato-phone" transform="translate(-5.951)">
    <path id="Caminho_38" data-name="Caminho 38" d="M25.2,0H8.789A2.839,2.839,0,0,0,5.951,2.841V36.162A2.837,2.837,0,0,0,8.789,39H25.2a2.839,2.839,0,0,0,2.838-2.838V2.841A2.84,2.84,0,0,0,25.2,0ZM12.945,1.725h8.1c.2,0,.371.306.371.684s-.166.685-.371.685h-8.1c-.206,0-.37-.307-.37-.685S12.739,1.725,12.945,1.725ZM16.995,36.2A1.812,1.812,0,1,1,18.8,34.383,1.814,1.814,0,0,1,16.995,36.2Zm8.915-6.209H8.079V4.794H25.91V29.987Z" fill="#40514e"/>
  </g>
</svg>
