<svg id="contato-whatsapp" xmlns="http://www.w3.org/2000/svg" width="38.597" height="38.597" viewBox="0 0 38.597 38.597">
  <g id="Grupo_13" data-name="Grupo 13">
    <path id="Caminho_39" data-name="Caminho 39" d="M19.3,0h-.01A19.286,19.286,0,0,0,3.674,30.609L1.269,37.779l7.418-2.371A19.295,19.295,0,1,0,19.3,0ZM30.532,27.252c-.466,1.315-2.313,2.405-3.787,2.723-1.008.215-2.325.386-6.759-1.452-5.671-2.35-9.323-8.113-9.608-8.486s-2.292-3.052-2.292-5.821a6.161,6.161,0,0,1,1.973-4.7,2.8,2.8,0,0,1,1.973-.692c.239,0,.454.012.646.022.567.024.852.058,1.225.953.466,1.122,1.6,3.891,1.734,4.176a1.149,1.149,0,0,1,.082,1.045,3.335,3.335,0,0,1-.625.885c-.285.328-.555.579-.839.931-.261.306-.555.634-.227,1.2a17.129,17.129,0,0,0,3.131,3.891,14.188,14.188,0,0,0,4.525,2.791,1.22,1.22,0,0,0,1.361-.215,23.349,23.349,0,0,0,1.508-2,1.077,1.077,0,0,1,1.385-.42c.521.181,3.278,1.544,3.845,1.826s.941.42,1.078.659A4.806,4.806,0,0,1,30.532,27.252Z" fill="#40514e"/>
  </g>
</svg>
