<svg xmlns="http://www.w3.org/2000/svg" width="25.184" height="24.069" viewBox="0 0 25.184 24.069">
  <g id="icon-linkedin" transform="translate(0 -9.708)">
    <g id="Grupo_7" data-name="Grupo 7" transform="translate(0 9.708)">
      <rect id="Retângulo_13" data-name="Retângulo 13" width="5.411" height="16.248" transform="translate(0.311 7.821)" fill="#fff"/>
      <path id="Caminho_4" data-name="Caminho 4" d="M166.37,141.192a5.823,5.823,0,0,0-4.509-1.861,6.5,6.5,0,0,0-1.878.254,4.259,4.259,0,0,0-1.426.713,6.109,6.109,0,0,0-1.566,1.72v-2.31H151.6l.017.787q.017.787.017,4.853t-.033,10.608h5.394v-9.067a3.96,3.96,0,0,1,.18-1.328,3.482,3.482,0,0,1,1.041-1.4,2.655,2.655,0,0,1,1.73-.566,2.333,2.333,0,0,1,2.074.976,4.744,4.744,0,0,1,.664,2.7v8.689h5.394v-9.312A7.806,7.806,0,0,0,166.37,141.192Z" transform="translate(-142.891 -131.887)" fill="#fff"/>
      <path id="Caminho_5" data-name="Caminho 5" d="M3.05,9.708a3.087,3.087,0,0,0-2.205.8A2.64,2.64,0,0,0,0,12.512a2.687,2.687,0,0,0,.82,2,2.959,2.959,0,0,0,2.164.8h.033a3.089,3.089,0,0,0,2.222-.8,2.6,2.6,0,0,0,.828-2A2.735,2.735,0,0,0,5.23,10.5,3,3,0,0,0,3.05,9.708Z" transform="translate(0 -9.708)" fill="#fff"/>
    </g>
  </g>
</svg>
