<svg id="icon-instagram" xmlns="http://www.w3.org/2000/svg" width="27.598" height="27.598" viewBox="0 0 27.598 27.598">
  <g id="Grupo_2" data-name="Grupo 2" transform="translate(0 0)">
    <g id="Grupo_1" data-name="Grupo 1">
      <path id="Caminho_2" data-name="Caminho 2" d="M18.974,0H8.624A8.625,8.625,0,0,0,0,8.624V18.974A8.625,8.625,0,0,0,8.624,27.6H18.974A8.625,8.625,0,0,0,27.6,18.974V8.624A8.625,8.625,0,0,0,18.974,0Zm6.037,18.974a6.044,6.044,0,0,1-6.037,6.037H8.624a6.044,6.044,0,0,1-6.037-6.037V8.624A6.044,6.044,0,0,1,8.624,2.587H18.974a6.044,6.044,0,0,1,6.037,6.037Z" transform="translate(0 0)" fill="#fff"/>
    </g>
  </g>
  <g id="Grupo_4" data-name="Grupo 4" transform="translate(6.9 6.9)">
    <g id="Grupo_3" data-name="Grupo 3">
      <path id="Caminho_3" data-name="Caminho 3" d="M134.9,128a6.9,6.9,0,1,0,6.9,6.9A6.9,6.9,0,0,0,134.9,128Zm0,11.212a4.312,4.312,0,1,1,4.312-4.312A4.318,4.318,0,0,1,134.9,139.212Z" transform="translate(-128 -128)" fill="#fff"/>
    </g>
  </g>
  <g id="Grupo_6" data-name="Grupo 6" transform="translate(20.297 5.463)">
    <g id="Grupo_5" data-name="Grupo 5">
      <circle id="Elipse_1" data-name="Elipse 1" cx="0.919" cy="0.919" r="0.919" fill="#fff"/>
    </g>
  </g>
</svg>
