<svg xmlns="http://www.w3.org/2000/svg" width="14.705" height="27.198" viewBox="0 0 14.705 27.198">
  <g id="icon-facebook" transform="translate(-22.077)">
    <path id="Caminho_1" data-name="Caminho 1" d="M36.228.006,32.7,0c-3.962,0-6.523,2.627-6.523,6.693V9.78H22.632a.555.555,0,0,0-.555.555v4.471a.555.555,0,0,0,.555.555h3.546V26.643a.554.554,0,0,0,.555.555h4.627a.555.555,0,0,0,.555-.555V15.36H36.06a.554.554,0,0,0,.555-.555l0-4.471a.555.555,0,0,0-.555-.555H31.914V7.163c0-1.257.3-1.9,1.938-1.9h2.376a.555.555,0,0,0,.554-.555V.56A.555.555,0,0,0,36.228.006Z" fill="#fff"/>
  </g>
</svg>
