<svg xmlns="http://www.w3.org/2000/svg" width="25" height="24.995" viewBox="0 0 25 24.995">
  <g id="icon-whatsapp" transform="translate(0)">
    <path id="Caminho_39" data-name="Caminho 39" d="M12.5,0h-.006A12.492,12.492,0,0,0,2.38,19.826L.822,24.47l4.8-1.536A12.5,12.5,0,1,0,12.5,0Zm7.275,17.651a3.525,3.525,0,0,1-2.453,1.764c-.653.139-1.506.25-4.378-.94-3.673-1.522-6.039-5.255-6.223-5.5a7.07,7.07,0,0,1-1.485-3.77A3.991,3.991,0,0,1,6.515,6.164a1.814,1.814,0,0,1,1.278-.448c.155,0,.294.008.418.014.367.016.552.038.793.617.3.727,1.036,2.52,1.123,2.7a.744.744,0,0,1,.053.677,2.16,2.16,0,0,1-.4.573c-.185.212-.359.375-.543.6-.169.2-.359.411-.147.777a11.094,11.094,0,0,0,2.028,2.52,9.19,9.19,0,0,0,2.931,1.808.79.79,0,0,0,.882-.139,15.123,15.123,0,0,0,.977-1.3.7.7,0,0,1,.9-.272c.337.117,2.123,1,2.49,1.183s.609.272.7.427a3.113,3.113,0,0,1-.213,1.738Z" transform="translate(0 0)" fill="#fff"/>
  </g>
</svg>
