<svg id="sobre-icon-custo" xmlns="http://www.w3.org/2000/svg" width="97.412" height="97.412" viewBox="0 0 97.412 97.412">
  <g id="Grupo_10" data-name="Grupo 10" transform="translate(0 0)">
    <g id="Grupo_9" data-name="Grupo 9">
      <path id="Caminho_32" data-name="Caminho 32" d="M83.146,14.265A48.706,48.706,0,0,0,14.265,83.146,48.706,48.706,0,0,0,83.146,14.265ZM48.706,91.7a43,43,0,1,1,43-43A43.047,43.047,0,0,1,48.706,91.7Z" transform="translate(0 0)" fill="#40514e"/>
    </g>
  </g>
  <g id="Grupo_12" data-name="Grupo 12" transform="translate(33.625 18.341)">
    <g id="Grupo_11" data-name="Grupo 11">
      <path id="Caminho_33" data-name="Caminho 33" d="M194.872,123.912h-6.114a6.316,6.316,0,1,1,0-12.633h12.227a2.854,2.854,0,0,0,0-5.708h-6.317V99.255a2.854,2.854,0,1,0-5.708,0v6.317h-.2a12.024,12.024,0,1,0,0,24.048h6.114a6.317,6.317,0,0,1,0,12.633H182.645a2.854,2.854,0,0,0,0,5.708h6.316v6.317a2.854,2.854,0,1,0,5.708,0V147.96h.2a12.024,12.024,0,0,0,0-24.048Z" transform="translate(-176.734 -96.401)" fill="#40514e"/>
    </g>
  </g>
</svg>
