<svg xmlns="http://www.w3.org/2000/svg" width="96.412" height="96.411" viewBox="0 0 96.412 96.411">
  <g id="sobre-icon-eficiencia" transform="translate(0 -0.501)">
    <path id="Caminho_34" data-name="Caminho 34" d="M5.327,38.257a2.819,2.819,0,0,0,2.162-.015l8.449-3.565a2.825,2.825,0,0,0-2.2-5.2l-2.066.872A40.485,40.485,0,0,1,87.933,36.5,2.824,2.824,0,1,0,93.4,35.086,46.133,46.133,0,0,0,6.381,28.353l-.953-2.26a2.825,2.825,0,0,0-5.2,2.2l3.565,8.449a2.823,2.823,0,0,0,1.539,1.518Zm0,0" transform="translate(0 0)" fill="#40514e"/>
    <path id="Caminho_35" data-name="Caminho 35" d="M108.776,318.017l-3.565-8.448a2.824,2.824,0,0,0-3.7-1.5l-8.449,3.566a2.824,2.824,0,1,0,2.2,5.2l2.365-1a40.484,40.484,0,0,1-76.557-5.456,2.824,2.824,0,1,0-5.469,1.414,46.133,46.133,0,0,0,87.142,6.448l.832,1.971a2.825,2.825,0,1,0,5.2-2.2Zm0,0" transform="translate(-12.587 -249.468)" fill="#40514e"/>
    <path id="Caminho_36" data-name="Caminho 36" d="M161.327,152.035a2.824,2.824,0,0,0,3.133-.858l23.662-28.622a2.824,2.824,0,0,0-2.177-4.625H175.653V92.322a2.825,2.825,0,0,0-5-1.8l-23.662,28.622a2.825,2.825,0,0,0,2.177,4.625h10.293v25.609a2.822,2.822,0,0,0,1.868,2.658Zm-6.161-33.915L170,100.171v20.584a2.824,2.824,0,0,0,2.825,2.825h7.117l-14.837,17.948V120.944a2.825,2.825,0,0,0-2.825-2.825Zm0,0" transform="translate(-118.785 -72.238)" fill="#40514e"/>
  </g>
</svg>
