<svg xmlns="http://www.w3.org/2000/svg" width="82" height="96.295" viewBox="0 0 82 96.295">
  <g id="sobre-icon-qualidade" transform="translate(0 0.001)">
    <path id="Caminho_29" data-name="Caminho 29" d="M81.9,26.126l0-.075c-.042-.925-.07-1.9-.087-2.992a10.206,10.206,0,0,0-9.61-10C61.134,12.443,52.569,8.833,45.251,1.7l-.062-.06a6.163,6.163,0,0,0-8.375,0l-.062.06C29.433,8.833,20.868,12.443,9.8,13.062a10.205,10.205,0,0,0-9.609,10C.171,24.141.143,25.12.1,26.051l0,.174c-.215,11.29-.483,25.34,4.218,38.093A48.492,48.492,0,0,0,15.948,82.439C21.8,88.146,29.455,92.677,38.714,95.905a7.052,7.052,0,0,0,.933.254,6.891,6.891,0,0,0,2.709,0,7.073,7.073,0,0,0,.937-.256c9.247-3.234,16.9-7.767,22.741-13.473A48.56,48.56,0,0,0,77.668,64.305C82.386,51.514,82.119,37.437,81.9,26.126ZM72.366,62.35C67.409,75.792,57.289,85.023,41.428,90.57a1.418,1.418,0,0,1-.179.049,1.268,1.268,0,0,1-.5,0,1.407,1.407,0,0,1-.178-.048c-15.877-5.536-26-14.762-30.958-28.2C5.284,50.61,5.529,37.712,5.746,26.333V26.27c.044-.978.073-2,.09-3.127a4.536,4.536,0,0,1,4.275-4.44A49.575,49.575,0,0,0,26.939,15,44.024,44.024,0,0,0,40.652,5.789a.521.521,0,0,1,.7,0A44.04,44.04,0,0,0,55.063,15a49.578,49.578,0,0,0,16.828,3.7,4.535,4.535,0,0,1,4.274,4.44c.017,1.131.046,2.156.09,3.127C76.472,37.662,76.711,50.57,72.366,62.35Zm0,0" fill="#40514e"/>
    <path id="Caminho_30" data-name="Caminho 30" d="M114.32,128.41a24.106,24.106,0,1,0,23.922,24.105A24.041,24.041,0,0,0,114.32,128.41Zm0,42.535a18.43,18.43,0,1,1,18.289-18.43A18.381,18.381,0,0,1,114.32,170.945Zm0,0" transform="translate(-73.321 -104.367)" fill="#40514e"/>
    <path id="Caminho_31" data-name="Caminho 31" d="M172.752,212.823l-11.2,11.2-3.039-3.039a2.838,2.838,0,0,0-4.014,4.013l5.046,5.046a2.838,2.838,0,0,0,4.013,0l13.2-13.2a2.838,2.838,0,0,0-4.014-4.013Zm0,0" transform="translate(-124.823 -172.165)" fill="#40514e"/>
  </g>
</svg>
